# xmcd
#
# Track frame offsets: 
#        150
#        22105
#        44340
#        64720
#        98789
#        106410
#        124913
#        149195
#        163880
#        194759
#        217934
#        242609
#
# Disc length: 3448 seconds
#
# Revision: 2
# Processed by: cddbd v1.5.2PL0 Copyright (c) Steve Scherf et al.
# Submitted via: ExactAudioCopyFreeDBPlugin 1.0
#
DISCID=b90d760c
DTITLE=Snooky Pryor and Mel Brown - Double shot!
DYEAR=1900
DGENRE=Blues
TTITLE0=Dirty Rat
TTITLE1=Ruby Mae
TTITLE2=Early In The Morning
TTITLE3=Big Leg Woman
TTITLE4=Snooky And Mel Boogie
TTITLE5=Rock This House
TTITLE6=Let Your Hair Down, Woman
TTITLE7=So Fine
TTITLE8=That's All Right
TTITLE9=Do The Boogaloo
TTITLE10=Ease My Mind
TTITLE11=Work 'Til My Days Are Gone
EXTD=ID3G:   0
EXTT0=
EXTT1=
EXTT2=
EXTT3=
EXTT4=
EXTT5=
EXTT6=
EXTT7=
EXTT8=
EXTT9=
EXTT10=
EXTT11=
PLAYORDER=
